Coordinates
version=1
nRows=11
nColumns=42
inDegrees=yes

Units are S.I. units (second, meters, Newtons, ...)
If the header above contains a line with 'inDegrees', this indicates whether rotational values are in degrees (yes) or radians (no).

endheader
time	pelvis_tilt	pelvis_list	pelvis_rotation	pelvis_tx	pelvis_ty	pelvis_tz	hip_flexion_r	hip_adduction_r	hip_rotation_r	knee_angle_r	knee_adduction_r	knee_angle_r_beta	ankle_angle_r	subtalar_angle_r	mtp_angle_r	hip_flexion_l	hip_adduction_l	hip_rotation_l	knee_angle_l	knee_adduction_l	knee_angle_l_beta	ankle_angle_l	subtalar_angle_l	mtp_angle_l	lumbar_extension	lumbar_bending	lumbar_rotation	arm_flex_r	arm_add_r	arm_rot_r	elbow_flex_r	pro_sup_r	wrist_flex_r	wrist_dev_r	arm_flex_l	arm_add_l	arm_rot_l	elbow_flex_l	pro_sup_l	wrist_flex_l	wrist_dev_l
      1.07000000	      9.43072756	     -3.04450360	      3.33940723	     -1.01821182	      0.90419609	      0.20977704	     -1.38129880	      4.82711410	    -10.38457625	     24.42801238	      6.91663795	      0.42634925	     19.21925304	     13.20260932	     -7.89775028	     15.81106043	     -3.17585140	     -5.98043370	     72.14049988	     -5.28222420	      1.25908925	      7.99407744	    -16.42681934	     -7.89775028	    -23.11484759	      6.67156460	     -1.20576945	      7.53334053	    -10.78670109	    -14.66598410	     35.40740196	     90.00000001	      0.00000000	      0.00000000	     -3.16958899	     -6.01558321	    -28.07516981	     31.88785018	     90.00000001	      0.00000000	      0.00000000
      1.08000000	      9.57256049	     -2.77155829	      3.20343412	     -1.01124627	      0.90481281	      0.21016559	     -2.30915299	      4.62339070	     -9.84023199	     23.96619470	      7.06364792	      0.41828901	     19.79548382	     13.10683492	     -7.89045503	     16.83643205	     -2.59705660	     -5.91980005	     70.96319191	     -5.20505116	      1.23854135	      8.78029236	    -16.10206853	     -7.89045503	    -23.46489646	      6.33454442	     -1.07514596	      8.28146013	    -10.91688528	    -13.99056400	     35.49665824	     90.00000001	      0.00000000	      0.00000000	     -3.43353886	     -5.87386337	    -28.06721651	     32.58206518	     90.00000001	      0.00000000	      0.00000000
      1.09000000	      9.87137774	     -2.47251916	      2.96820262	     -1.00412099	      0.90580390	      0.21059566	     -3.47834095	      4.36492918	     -9.17628453	     23.37604036	      7.28142812	      0.40798887	     20.00753123	     12.90219596	     -7.87662189	     17.48390514	     -2.03366766	     -6.30998150	     69.28259585	     -5.41984381	      1.20920941	      9.11651813	    -15.28724550	     -7.87662189	    -23.99025144	      5.95560707	     -0.89211109	      8.98412198	    -11.20746353	    -12.75895643	     35.60416201	     90.00000001	      0.00000000	      0.00000000	     -3.73210990	     -5.70852653	    -28.09410155	     33.28950851	     90.00000001	      0.00000000	      0.00000000
      1.10000000	      9.91767789	     -2.25266449	      2.71881657	     -0.99713399	      0.90621905	      0.21130998	     -4.17917564	      4.26968863	     -8.73566892	     23.08567649	      7.21144532	      0.40292106	     20.23672268	     12.76991662	     -7.86375705	     18.39637471	     -1.56421508	     -6.51720278	     67.47467629	     -5.52014434	      1.17765526	      9.48674310	    -14.40783639	     -7.86375705	    -24.21924766	      5.60718531	     -0.63432344	      9.62748375	    -11.31280544	    -12.08915157	     35.72250685	     90.00000001	      0.00000000	      0.00000000	     -3.94559408	     -5.56187778	    -28.12085484	     33.82401924	     90.00000001	      0.00000000	      0.00000000
      1.11000000	      9.93686000	     -2.04505428	      2.44893457	     -0.99007761	      0.90647893	      0.21197450	     -4.82100313	      4.17537519	     -8.35183202	     22.86211620	      7.10057653	      0.39901920	     20.53097236	     12.73852849	     -7.85364217	     19.23276084	     -1.15036391	     -6.61225912	     65.42855377	     -5.42175365	      1.14194369	      9.78858598	    -13.54548253	     -7.85364217	    -24.39464002	      5.27810240	     -0.37999154	     10.29420138	    -11.38782913	    -11.58078530	     35.75733234	     90.00000001	      0.00000000	      0.00000000	     -4.19152012	     -5.38612598	    -28.15011399	     34.36116624	     90.00000001	      0.00000000	      0.00000000
      1.12000000	      9.64038610	     -2.14927421	      2.29667365	     -0.98331024	      0.90585192	      0.21254836	     -4.94525126	      4.36070297	     -8.32453874	     22.90462363	      7.01441631	      0.39976110	     20.50666130	     12.71200924	     -7.84902697	     20.63972336	     -1.16013622	     -6.51699000	     63.65319725	     -5.20261216	      1.11095787	      9.78577601	    -12.87965142	     -7.84902697	    -24.21641686	      5.35140330	     -0.10748659	     10.86866060	    -11.46389159	    -11.43899695	     36.08801478	     90.00000001	      0.00000000	      0.00000000	     -4.33016182	     -5.16379958	    -28.07708190	     34.64000688	     90.00000001	      0.00000000	      0.00000000
      1.13000000	      9.92954770	     -1.66444238	      1.88940481	     -0.97585912	      0.90671991	      0.21327724	     -6.03870555	      3.92691053	     -7.70284428	     22.45312902	      6.96572706	      0.39188103	     21.13994719	     12.86033196	     -7.83917827	     20.60959094	     -0.43360659	     -6.76474445	     60.58409854	     -5.08645015	      1.05739199	     10.19327793	    -11.66552833	     -7.83917827	    -24.65522070	      4.64628998	      0.07449894	     11.64142403	    -11.49936789	    -10.63413582	     35.70575633	     90.00000001	      0.00000000	      0.00000000	     -4.69367321	     -5.00771113	    -28.25003590	     35.39097739	     90.00000001	      0.00000000	      0.00000000
      1.14000000	      9.64168775	     -1.62275543	      1.66322935	     -0.96885939	      0.90610426	      0.21385597	     -6.24840222	      4.05878094	     -7.44705715	     22.33834914	      6.65561991	      0.38987774	     21.19498332	     12.96837850	     -7.83282644	     21.63466435	     -0.18800063	     -6.71515918	     58.10753584	     -4.98155659	      1.01416782	     10.22855924	    -10.70947906	     -7.83282644	    -24.45416490	      4.51386933	      0.33390425	     12.15667694	    -11.53937508	    -10.31186425	     35.87604032	     90.00000001	      0.00000000	      0.00000000	     -4.88912651	     -4.76665217	    -28.25346202	     35.74394375	     90.00000001	      0.00000000	      0.00000000
      1.15000000	      9.91694183	     -1.31399043	      1.33564209	     -0.96116431	      0.90656827	      0.21438454	     -7.35726384	      3.59842106	     -7.25554589	     21.94212113	      6.89789699	      0.38296226	     21.58065456	     13.44562678	     -7.82051601	     21.56266807	      0.23329907	     -7.48516208	     54.86430243	     -5.23817284	      0.95756272	     10.64784306	     -8.75798051	     -7.82051601	    -24.81467752	      4.06643477	      0.44976290	     12.83182765	    -11.55272658	     -9.53662847	     35.71510161	     90.00000001	      0.00000000	      0.00000000	     -5.17751637	     -4.57623872	    -28.49073754	     36.20752482	     90.00000001	      0.00000000	      0.00000000
      1.16000000	      9.91308858	     -1.20043976	      0.99663006	     -0.95361132	      0.90630480	      0.21485301	     -7.98989980	      3.49410568	     -7.19648678	     21.74906665	      6.72716655	      0.37959282	     21.85936311	     14.16246631	     -7.80021757	     21.88271083	      0.44660128	     -8.19311896	     51.79650116	     -5.50851358	      0.90401949	     11.17548474	     -6.21137841	     -7.80021757	    -24.86685216	      3.85661714	      0.71328681	     13.35840090	    -11.64886211	     -8.98653111	     35.78243672	     90.00000001	      0.00000000	      0.00000000	     -5.40884717	     -4.28257772	    -28.64404783	     36.53179382	     90.00000001	      0.00000000	      0.00000000
      1.17000000	      9.83264024	     -1.10687468	      0.80766589	     -0.94616461	      0.90579200	      0.21507789	     -8.55740224	      3.35237410	     -7.11476351	     21.55599982	      6.76097743	      0.37622317	     22.17656862	     14.47532080	     -7.78870637	     22.22947574	      0.68338886	     -8.17909544	     48.71791377	     -5.26213409	      0.85028800	     11.40800868	     -4.83758888	     -7.78870637	    -24.82319031	      3.71167499	      0.81831326	     13.92936064	    -11.64343679	     -8.63870373	     35.70105903	     90.00000001	      0.00000000	      0.00000000	     -5.63888765	     -4.04711040	    -28.70133139	     36.80185846	     90.00000001	      0.00000000	      0.00000000
